<svg width="640" height="480" xmlns="http://www.w3.org/2000/svg">
 <!-- Created with SVG-edit - http://svg-edit.googlecode.com/ -->
 <g>
  <rect id="louis-room-205ab" fill="palegreen" stroke="#7166DE" stroke-width="2.7" stroke-linejoin="null" stroke-linecap="null" x="195" y="3.33334" width="284.66673" height="160.33334"/>
  <title>Louis Room</title>
  <g id="svg_2">
   <!--image x="192.99981" y="0.17104" width="296.6895" height="173.06887" id="svg_1" xlink:href="http://i.imgur.com/q9z6YHj.png"/-->
   <rect id="svg_33" height="7.04638" width="12.98017" y="44.49675" x="408.43746" stroke-width="2" stroke="#007fff" fill="none"/>
   <g id="back_wall_svg_13">
    <rect id="table_53" height="7.04638" width="12.98017" y="12.04633" x="223.1456" stroke-width="2" stroke="#00ffff" fill="none"/>
    <rect id="table_52" height="7.04638" width="12.98017" y="12.04633" x="248.36421" stroke-width="2" stroke="#00ffff" fill="none"/>
    <rect id="table_51" height="7.04638" width="12.98017" y="12.04633" x="271.91394" stroke-width="2" stroke="#00ffff" fill="none"/>
    <rect id="table_49" height="7.04638" width="12.98017" y="12.04633" x="297.1789" stroke-width="2" stroke="#00ffff" fill="none"/>
    <rect id="table_48" height="7.04638" width="12.98017" y="12.27812" x="322.3975" stroke-width="2" stroke="#00ffff" fill="none"/>
    <rect id="table_47" height="7.04638" width="12.98017" y="12.27812" x="347.61611" stroke-width="2" stroke="#00ffff" fill="none"/>
    <rect id="table_46" height="7.04638" width="12.98017" y="12.27812" x="369.49696" stroke-width="2" stroke="#00ffff" fill="none"/>
    <rect id="table_45" height="7.04638" width="12.98017" y="12.27812" x="390.82152" stroke-width="2" stroke="#00ffff" fill="none"/>
    <rect id="table_44" height="7.04638" width="12.98017" y="12.27812" x="414.00039" stroke-width="2" stroke="#00ffff" fill="none"/>
    <rect id="table_43" height="15.2" width="28" y="-1265.39679" x="2299.27349" stroke-width="2" stroke="#00ffff" fill="none"/>
   </g>
   <g id="front_wall_svg_14">
    <rect height="7.04638" width="12.98017" y="135.35791" x="219.62242" stroke-width="2" stroke="#7f007f" fill="none" id="table_7"/>
    <rect height="7.04638" width="12.98017" y="135.35791" x="243.17215" stroke-width="2" stroke="#7f007f" fill="none" id="table_6"/>
    <rect height="7.04638" width="12.98017" y="135.35791" x="264.26491" stroke-width="2" stroke="#7f007f" fill="none" id="table_5"/>
    <rect height="7.04638" width="12.98017" y="135.35791" x="338.43729" stroke-width="2" stroke="#7f007f" fill="none" id="table_4"/>
    <rect height="7.04638" width="12.98017" y="135.35791" x="361.61615" stroke-width="2" stroke="#7f007f" fill="none" id="table_3"/>
    <rect height="7.04638" width="12.98017" y="135.35791" x="385.25859" stroke-width="2" stroke="#7f007f" fill="none" id="table_2"/>
    <rect height="7.04638" width="12.98017" y="135.35791" x="410.47721" stroke-width="2" stroke="#7f007f" fill="none" id="table_1"/>
   </g>
   <g id="svg_25">
    <rect id="svg_26" height="7.04638" width="12.98017" y="44.49675" x="259.21192" stroke-width="2" stroke="#007fff" fill="none"/>
    <rect id="svg_27" height="7.04638" width="12.98017" y="44.49676" x="282.20536" stroke-width="2" stroke="#007fff" fill="none"/>
    <rect id="svg_28" height="7.04638" width="12.98017" y="44.49676" x="239.50989" stroke-width="2" stroke="#007fff" fill="none"/>
    <rect id="svg_29" height="7.04638" width="12.98017" y="44.49676" x="307.56303" stroke-width="2" stroke="#007fff" fill="none"/>
    <rect id="svg_30" height="7.04638" width="12.98017" y="44.49676" x="332.78164" stroke-width="2" stroke="#007fff" fill="none"/>
    <rect id="svg_31" height="7.04638" width="12.98017" y="44.49676" x="357.90754" stroke-width="2" stroke="#007fff" fill="none"/>
    <rect id="svg_32" height="7.04638" width="12.98017" y="44.49676" x="383.12614" stroke-width="2" stroke="#007fff" fill="none"/>
   </g>
   <g id="svg_34">
    <rect id="table_26" height="7.04638" width="12.98017" y="58.86764" x="259.21192" stroke-width="2" stroke="#ff0098" fill="none"/>
    <rect id="table_27" height="7.04638" width="12.98017" y="58.86766" x="282.20536" stroke-width="2" stroke="#ff0098" fill="none"/>
    <rect id="table_25" height="7.04638" width="12.98017" y="58.86766" x="239.50989" stroke-width="2" stroke="#ff0098" fill="none"/>
    <rect id="table_28" height="7.04638" width="12.98017" y="58.86766" x="307.56303" stroke-width="2" stroke="#ff0098" fill="none"/>
    <rect id="table_29" height="7.04638" width="12.98017" y="58.86766" x="332.78164" stroke-width="2" stroke="#ff0098" fill="none"/>
    <rect id="table_30" height="7.04638" width="12.98017" y="58.86766" x="357.90754" stroke-width="2" stroke="#ff0098" fill="none"/>
    <rect id="table_31" height="7.04638" width="12.98017" y="58.86766" x="383.35794" stroke-width="2" stroke="#ff0098" fill="none"/>
    <rect id="table_32" height="7.04638" width="12.98017" y="58.86764" x="408.6229" stroke-width="2" stroke="#ff0098" fill="none"/>
   </g>
   <g id="svg_43">
    <rect id="table_23" height="7.04638" width="12.98017" y="87.60943" x="259.21192" stroke-width="2" stroke="#00ff00" fill="none"/>
    <rect id="table_22" height="7.04638" width="12.98017" y="87.60944" x="285.91398" stroke-width="2" stroke="#00ff00" fill="none"/>
    <rect id="table_24" height="7.04638" width="12.98017" y="87.60944" x="239.50989" stroke-width="2" stroke="#00ff00" fill="none"/>
    <rect id="table_21" height="7.04638" width="12.98017" y="87.60944" x="311.50344" stroke-width="2" stroke="#00ff00" fill="none"/>
    <rect id="table_20" height="7.04638" width="12.98017" y="87.60944" x="336.72205" stroke-width="2" stroke="#00ff00" fill="none"/>
    <rect id="table_19" height="7.04638" width="12.98017" y="87.60944" x="361.84795" stroke-width="2" stroke="#00ff00" fill="none"/>
    <rect id="table_18" height="7.04638" width="12.98017" y="87.60944" x="387.06655" stroke-width="2" stroke="#00ff00" fill="none"/>
    <rect id="table_17" height="7.04638" width="12.98017" y="87.60943" x="408.6229" stroke-width="2" stroke="#00ff00" fill="none"/>
   </g>
   <g id="svg_52">
    <rect id="table_10" height="7.04638" width="12.98017" y="101.98034" x="259.21192" stroke-width="2" stroke="#5f00bf" fill="none"/>
    <rect id="table_11" height="7.04638" width="12.98017" y="101.98035" x="285.91398" stroke-width="2" stroke="#5f00bf" fill="none"/>
    <rect id="table_9" height="7.04638" width="12.98017" y="101.98035" x="239.50989" stroke-width="2" stroke="#5f00bf" fill="none"/>
    <rect id="table_12" height="7.04638" width="12.98017" y="101.98035" x="311.50344" stroke-width="2" stroke="#5f00bf" fill="none"/>
    <rect id="table_13" height="7.04638" width="12.98017" y="101.98035" x="336.72205" stroke-width="2" stroke="#5f00bf" fill="none"/>
    <rect id="table_14" height="7.04638" width="12.98017" y="101.98035" x="361.84795" stroke-width="2" stroke="#5f00bf" fill="none"/>
    <rect id="table_15" height="7.04638" width="12.98017" y="101.98035" x="387.06655" stroke-width="2" stroke="#5f00bf" fill="none"/>
    <rect id="table_16" height="7.04638" width="12.98017" y="101.98034" x="408.6229" stroke-width="2" stroke="#5f00bf" fill="none"/>
   </g>
   <rect id="table_43" height="15.2" width="28" y="-1204.89679" x="2355.87348" stroke-width="2" stroke="#ff0000" fill="none" transform="matrix(0,-0.21490394587832948,0.21490394587832948,0,760.1508701988914,942.5938367096755) "/>
   <rect id="table_42" height="15.2" width="28" y="-311.73641" x="1344.43246" stroke-width="2" stroke="#0000ff" fill="none" transform="matrix(0,-0.46357733538033274,0.46357733538033274,0,612.7065225939496,708.122752719501) "/>
   <rect id="table_41" height="15.2" width="28" y="-241.73641" x="1344.93246" stroke-width="2" stroke="#00ff00" fill="none" transform="matrix(0,-0.46357733538033274,0.46357733538033274,0,580.4878977850165,740.8049548638146) "/>
   <rect id="table_8" height="15.2" width="28" y="-234.23641" x="762.43246" stroke-width="2" stroke="#ff00ff" fill="none" transform="matrix(0,-0.46357733538033274,0.46357733538033274,0,306.9772699106202,474.24798702012345) "/>
   <rect fill="none" stroke="#ff7f00" stroke-width="2.7" stroke-linejoin="null" stroke-linecap="null" x="194.6356" y="11.30461" width="284.63651" height="140.9275" id="svg_65"/>
  </g>
 </g>
</svg>